<svg width="80" height="25" viewBox="0 0 80 25" fill="none" xmlns="http://www.w3.org/2000/svg">
<path d="M9.18 2.41998H13.05L22.29 23.66H17.01L15.18 19.16H6.93L5.16 23.66H0L9.18 2.41998ZM10.98 8.59998L8.4 15.2H13.59L10.98 8.59998Z" fill="#01996D"/>
<path d="M23.9163 0.97998H28.4163V23.66H23.9163V0.97998Z" fill="#01996D"/>
<path d="M31.7093 9.07998H36.2093V23.66H31.7093V9.07998ZM31.3493 4.48998C31.3493 3.76998 31.5993 3.15998 32.0993 2.65998C32.6193 2.13998 33.2393 1.87998 33.9593 1.87998C34.6793 1.87998 35.2893 2.13998 35.7893 2.65998C36.3093 3.15998 36.5693 3.76998 36.5693 4.48998C36.5693 5.20998 36.3093 5.82998 35.7893 6.34998C35.2893 6.84998 34.6793 7.09998 33.9593 7.09998C33.2393 7.09998 32.6193 6.84998 32.0993 6.34998C31.5993 5.82998 31.3493 5.20998 31.3493 4.48998Z" fill="#01996D"/>
<path d="M37.9123 9.07998H42.7723L46.4623 18.98H46.5223L49.9423 9.07998H54.4723L48.7123 23.66H43.9423L37.9123 9.07998Z" fill="#01996D"/>
<path d="M56.1722 9.07998H60.6722V23.66H56.1722V9.07998ZM55.8122 4.48998C55.8122 3.76998 56.0622 3.15998 56.5622 2.65998C57.0822 2.13998 57.7022 1.87998 58.4222 1.87998C59.1422 1.87998 59.7522 2.13998 60.2522 2.65998C60.7722 3.15998 61.0322 3.76998 61.0322 4.48998C61.0322 5.20998 60.7722 5.82998 60.2522 6.34998C59.7522 6.84998 59.1422 7.09998 58.4222 7.09998C57.7022 7.09998 57.0822 6.84998 56.5622 6.34998C56.0622 5.82998 55.8122 5.20998 55.8122 4.48998Z" fill="#01996D"/>
<path d="M63.3652 16.37C63.3652 15.21 63.5752 14.16 63.9952 13.22C64.4152 12.28 64.9852 11.48 65.7052 10.82C66.4452 10.14 67.3052 9.61998 68.2852 9.25998C69.2852 8.89998 70.3452 8.71998 71.4652 8.71998C72.5852 8.71998 73.6352 8.89998 74.6152 9.25998C75.6152 9.61998 76.4752 10.14 77.1952 10.82C77.9352 11.48 78.5152 12.28 78.9352 13.22C79.3552 14.16 79.5652 15.21 79.5652 16.37C79.5652 17.53 79.3552 18.58 78.9352 19.52C78.5152 20.46 77.9352 21.27 77.1952 21.95C76.4752 22.61 75.6152 23.12 74.6152 23.48C73.6352 23.84 72.5852 24.02 71.4652 24.02C70.3452 24.02 69.2852 23.84 68.2852 23.48C67.3052 23.12 66.4452 22.61 65.7052 21.95C64.9852 21.27 64.4152 20.46 63.9952 19.52C63.5752 18.58 63.3652 17.53 63.3652 16.37ZM67.8652 16.37C67.8652 17.47 68.1752 18.36 68.7952 19.04C69.4352 19.72 70.3252 20.06 71.4652 20.06C72.6052 20.06 73.4852 19.72 74.1052 19.04C74.7452 18.36 75.0652 17.47 75.0652 16.37C75.0652 15.27 74.7452 14.38 74.1052 13.7C73.4852 13.02 72.6052 12.68 71.4652 12.68C70.3252 12.68 69.4352 13.02 68.7952 13.7C68.1752 14.38 67.8652 15.27 67.8652 16.37Z" fill="#01996D"/>
</svg>
